<?xml version="1.0" encoding="UTF-8"?>
<svg viewBox="0 0 570.3031 512.14569" xmlns="http://www.w3.org/2000/svg" xmlns:xlink="http://www.w3.org/1999/xlink">
 <defs>
  <linearGradient id="a">
   <stop stop-opacity="0" offset="0"/>
   <stop stop-opacity="0" offset=".6"/>
   <stop offset="1"/>
  </linearGradient>
  <radialGradient id="d" cx="508.64" cy="331.67" r="17.922" gradientTransform="matrix(0 -.58899 .95966 0 385.47 800.8)" gradientUnits="userSpaceOnUse">
   <stop stop-opacity=".67843" offset="0"/>
   <stop stop-opacity=".32941" offset=".57"/>
   <stop stop-opacity="0" offset="1"/>
  </radialGradient>
  <radialGradient id="h" cx="504.93" cy="332.02" r="17.922" gradientTransform="matrix(2.3611 0 -9.0801e-7 -1.5669 -488.44 1026.3)" gradientUnits="userSpaceOnUse" xlink:href="#a"/>
  <radialGradient id="g" cx="505.31" cy="340.96" r="17.922" gradientTransform="matrix(1.8336 -.49132 .41785 1.5594 -365.94 229.6)" gradientUnits="userSpaceOnUse" xlink:href="#a"/>
  <radialGradient id="f" cx="507.58" cy="332.63" r="17.922" gradientTransform="matrix(2.2544 -.60406 .41785 1.5594 -579.52 286.82)" gradientUnits="userSpaceOnUse" xlink:href="#a"/>
  <radialGradient id="e" cx="504.93" cy="332.63" r="17.922" gradientTransform="matrix(1.4106e-6 -2.3339 -1.4851 0 1197.7 1683.6)" gradientUnits="userSpaceOnUse" xlink:href="#a"/>
  <radialGradient id="c" cx="506.72" cy="326.56" r="17.922" gradientTransform="matrix(0 -1.3166 1.784 1.0222e-6 124.11 1177.7)" gradientUnits="userSpaceOnUse" xlink:href="#a"/>
  <radialGradient id="b" cx="521.02" cy="324.51" r="17.922" gradientTransform="matrix(0 -1.2789 1.7329 9.9295e-7 141.42 1159.6)" gradientUnits="userSpaceOnUse" xlink:href="#a"/>
 </defs>
 <g transform="matrix(14.427 0 0 14.427 -9866.5 -7101.1)">
  <path d="m703.66 492.22c-5.2342 4e-5 -9.9874 1.0602-13.562 2.8438s-6.1875 4.435-6.1875 7.75v2.7812c0.00227 0.13456 0.02411 0.27722 0.0625 0.40625l0.71875 2.5312c0.02496 0.07359 0.05756 0.14996 0.09375 0.21875l6.5312 14.156c0.85638 1.8534 2.7026 2.9448 4.875 3.6875s4.7787 1.125 7.4688 1.125c2.9706-2e-5 5.6947-0.52605 7.9062-1.4375s3.982-2.2056 4.8125-4.0312l6.625-14.531c0.05427-0.1067 0.0979-0.22718 0.125-0.34375l0.28125-1.5c0.01879-0.09051 0.02965-0.18882 0.03125-0.28125v-2.7812c0-3.315-2.6124-5.9664-6.1875-7.75s-8.3596-2.8438-13.594-2.8438zm0.09375 0.5625c10.27 0 18.625 4.1775 18.625 9.3125v2.8438l-0.28125 1.5312-6.75 14.875c-1.202 2.6483-5.8934 4.6875-11.594 4.6875-5.2042 0-10.037-1.4687-11.219-4.0312l-6.6875-14.469-0.71875-2.5938v-2.8438c-2e-5 -5.135 8.355-9.3124 18.625-9.3125z"/>
  <path d="m703.75 492.78c-10.27 5e-5 -18.625 4.1776-18.625 9.3125v2.8438l0.72965 2.6054 6.6724 14.473c1.1814 2.5625 6.0187 4.0156 11.223 4.0156 5.7004-3e-5 10.394-2.0523 11.596-4.7006l6.7518-14.876 0.27687-1.5173v-2.8438c0-5.135-8.355-9.3125-18.625-9.3125z" fill="#fff" fill-opacity=".5"/>
  <path d="m703.75 492.78c-10.27 5e-5 -18.625 4.1776-18.625 9.3125v2.8438l0.72965 2.6054 6.6724 14.473c1.1814 2.5625 6.0187 4.0156 11.223 4.0156 5.7004-3e-5 10.394-2.0523 11.596-4.7006l6.7518-14.876 0.27687-1.5173v-2.8438c0-5.135-8.355-9.3125-18.625-9.3125z" fill="url(#h)"/>
  <path d="m703.74 492.78c10.27 0 18.645 4.1873 18.645 9.3223v2.8434c4e-5 5.135-8.3746 9.2898-18.645 9.2898s-18.612-4.1548-18.612-9.2898v-2.8434c0-5.135 8.3421-9.3222 18.612-9.3223z" fill="#fff" fill-opacity=".5"/>
  <path d="m703.77 492.78c-10.27 0-18.645 4.1873-18.645 9.3223v2.8434c-6e-5 5.135 8.3746 9.2898 18.645 9.2898s18.612-4.1548 18.612-9.2898v-2.8434c0-5.135-8.3421-9.3222-18.612-9.3223z" fill="url(#g)"/>
  <path d="m703.77 492.78c-10.27 0-18.645 4.1873-18.645 9.3223v2.8434c-6e-5 5.135 8.3746 9.2898 18.645 9.2898s18.612-4.1548 18.612-9.2898v-2.8434c0-5.135-8.3421-9.3222-18.612-9.3223z" fill="url(#f)"/>
  <path d="m703.74 492.78c10.27 0 18.645 4.1873 18.645 9.3223v2.8434c4e-5 5.135-8.3746 9.2898-18.645 9.2898s-18.612-4.1548-18.612-9.2898v-2.8434c0-5.135 8.3421-9.3222 18.612-9.3223z" fill="url(#e)"/>
  <path d="m685.32 500.87c-0.0542 0.22703-0.09688 0.45288-0.12995 0.68287-0.03442 0.23972-0.06492 0.49703-0.06492 0.74227v1.871c-6e-5 4.6937 8.3746 8.4914 18.645 8.4915s18.612-3.7978 18.612-8.4915v-1.871c0-0.24519-0.03048-0.50255-0.06493-0.74227-0.03312-0.22999-0.07598-0.45584-0.12998-0.68287-1.2634 5.1408-9.0268 9.0853-18.417 9.0853s-17.182-3.9443-18.45-9.0853z" fill="url(#d)"/>
  <path d="m703.77 493.24c8.5996-3e-5 15.576 3.4673 15.576 7.7671s-6.9761 7.8086-15.576 7.8086-15.576-3.5088-15.576-7.8086 6.9761-7.7671 15.576-7.7671z" fill="url(#c)"/>
  <path d="m703.77 493.24c8.5996-3e-5 15.576 3.4673 15.576 7.7671s-6.9761 7.8086-15.576 7.8086-15.576-3.5088-15.576-7.8086 6.9761-7.7671 15.576-7.7671z" fill="url(#b)"/>
 </g>
</svg>
