<?xml version="1.0" encoding="UTF-8"?>
<svg viewBox="0 0 744.09448819 1052.3622047" xmlns="http://www.w3.org/2000/svg">
 <g transform="matrix(2.9697 0 0 2.9697 883.82 -281.36)">
  <g transform="translate(-465.79 57.883)">
   <path transform="translate(202.14 30)" d="m59.219 19.062-40.062 63.969-1.5625 46.375 4.0938 40.625-1.2188-45.969 2.7812-39.938 34.219-56.406 10.719 36.875-2.2812 4.375s-3.1572 5.4808-3 8.4688c0.20304 3.8592 5.33 6.5871 5 10.438-0.29521 3.4446-4.4696 5.3687-6 8.4688-0.1799 0.36443-0.3417 0.7493-0.5 1.125l-7.7812-8.5312-2.4062-22.75 1.0625-26.188-3.5312 23.156 1.3438 26.406 10.312 10.906c-0.19964 0.77113-0.38154 1.5606-0.5 2.3438-0.39539 2.614-0.52185 5.2533-0.5 7.9062l-3.9688-1.7188-10.406-20.438-7.8438-25 4.1562 23.125 10.5 24.281 7.6562 3.1875c0.09388 1.863 0.2461 3.7133 0.40625 5.5625 0.01221 0.14093 0.04856 0.32299 0.0625 0.46875l-21.719 9-10.5 24.281-4.1562 23.125 7.8438-25 10.406-20.438 18.469-8c0.16871 1.237 0.37314 2.5335 0.59375 3.875l-20.406 21.562-1.3438 26.406 3.5312 23.156-1.0625-26.188 2.4062-22.75 17.406-19.031c1.147 6.4073 2.4688 12.469 2.4688 12.469s8.1636-6.235 12.906-6c6.5434 0.32425 10.386 10 16.938 10s10.363-9.6758 16.906-10c4.7426-0.23502 12.938 6 12.938 6s1.3431-6.2206 2.5-12.719l17.375 19 2.375 22.75-1.0312 26.156 3.5-23.125-1.3125-26.406-20.344-21.562c0.21894-1.344 0.39802-2.6442 0.5625-3.875l18.438 8 10.375 20.406 7.875 25-4.1562-23.125-10.5-24.25-21.688-9c5e-3 -0.0574 0.0263-0.13091 0.0312-0.1875 0.16906-1.9521 0.3134-3.908 0.40625-5.875l7.6562-3.1875 10.5-24.25 4.1562-23.125-7.875 25-10.375 20.406-3.9688 1.7188c9e-3 -2.5484-0.12011-5.0822-0.5-7.5938-0.13136-0.86848-0.33127-1.7411-0.5625-2.5938l10.375-10.969 1.3438-26.406-3.5312-23.125 1.0625 26.156-2.4062 22.75-7.875 8.625c-0.13106-0.30144-0.26112-0.61227-0.40625-0.90625-1.5304-3.1001-5.7048-5.0241-6-8.4688-0.33-3.8504 4.797-6.5783 5-10.438 0.15719-2.9879-3-8.4688-3-8.4688l-2.25-4.3125 10.656-36.656 34.219 56.406 2.7812 39.969-1.2188 45.938 4.0938-40.625-1.5625-46.375-40.062-63.969-12.094 39.219-5.0312-9.5938-0.46875 20-4.2188-4-6.2188-22-2.25 14-4.2188-24-4.25 24-2.2188-14-6.2188 22-4.25 4-0.4375-20-5 9.5312-12.156-39.438z" fill="#b80000"/>
   <path transform="matrix(.7 0 0 .7 95.068 33.066)" d="m337.14 120.5c0 3.4868-2.8266 6.3134-6.3134 6.3134s-6.3134-2.8266-6.3134-6.3134 2.8266-6.3134 6.3134-6.3134 6.3134 2.8266 6.3134 6.3134z"/>
   <path transform="matrix(.7 0 0 .7 33.554 33.066)" d="m337.14 120.5c0 3.4868-2.8266 6.3134-6.3134 6.3134s-6.3134-2.8266-6.3134-6.3134 2.8266-6.3134 6.3134-6.3134 6.3134 2.8266 6.3134 6.3134z"/>
  </g>
  <g transform="translate(-294.9 168.74)" fill="#b80000">
   <path d="m99.857 169.22s7.0838-2.8778 11.571-2c5.1536 1.0081 8.3202 8 13.571 8s8.4178-6.9919 13.571-8c4.4876-0.87779 11.571 2 11.571 2l2 13.875v23.75l-4 13.875s-6.3147-2.1314-9.5714-2c-4.7124 0.19008-13.571 4-13.571 4s-8.859-3.8099-13.571-4c-3.2567-0.13137-9.5714 2-9.5714 2l-4-13.875v-23.75z"/>
   <path d="m104 223.47c3.3613-1.1816 6.9371-2 10.5-2s6.9371 2 10.5 2 6.9371-2 10.5-2 7.1387 0.81843 10.5 2c4.984 1.752 10.361 3.5986 14 7.4286 5.4291 5.7145 11.242 13.645 10 21.429-0.43206 2.7072-3.1095 4.9102-5.625 6-3.5557 1.5404-8.003 1.3771-11.625 0-2.3449-0.89153-5.625-5-5.625-5s-0.48812 3.6663-1.625 5c-0.94898 1.1132-2.4842 1.6571-3.9062 2-2.562 0.61774-5.3474 0.63045-7.9062 0-1.3934-0.3433-2.7676-1.0163-3.8125-2-1.7014-1.6017-3.625-6-3.625-6l-1.25 10-1.25-10s-1.9236 4.3983-3.625 6c-1.0449 0.98368-2.4191 1.6567-3.8125 2-2.5589 0.63045-5.3443 0.61774-7.9062 0-1.4221-0.34289-2.9573-0.88676-3.9062-2-1.1369-1.3337-1.625-5-1.625-5s-3.2801 4.1085-5.625 5c-3.622 1.3771-8.0693 1.5404-11.625 0-2.5155-1.0898-5.1929-3.2928-5.625-6-1.2423-7.7838 4.5709-15.714 10-21.429 3.6387-3.83 9.016-5.6766 14-7.4286z"/>
  </g>
  <path d="m-197.05 230.11s7.0838-2.8778 11.571-2c5.1536 1.0081 10.32 8 15.571 8s10.418-6.9919 15.571-8c4.4876-0.87779 11.571 2 11.571 2s3.3267 9.109 4 13.875c0.55369 3.9194 0 7.8609 0 11.875s-2 11.875-2 11.875l-4 13.875s-8.3147-2.1314-11.571-2c-4.7124 0.19008-8.6252 8-13.571 8s-8.8591-7.8099-13.571-8c-3.2567-0.13137-11.571 2-11.571 2l-4-13.875s-2-7.8609-2-11.875-0.55369-7.9556 0-11.875c0.6733-4.766 4-13.875 4-13.875z" fill="#b80000"/>
  <path d="m-197.05 284.36s7.0838-2.8778 11.571-2c5.1536 1.0081 10.32 8 15.571 8s10.418-6.9919 15.571-8c4.4876-0.87779 11.571 2 11.571 2s3.3267 9.109 4 13.875c0.55369 3.9194 0 7.8609 0 11.875s-2 11.875-2 11.875l-4 13.875s-8.3147-2.1314-11.571-2c-4.7124 0.19008-8.6252 8-13.571 8s-8.8591-7.8099-13.571-8c-3.2567-0.13137-11.571 2-11.571 2l-4-13.875s-2-7.8609-2-11.875-0.55369-7.9556 0-11.875c0.67329-4.766 4-13.875 4-13.875z" fill="#b80000"/>
 </g>
 <text x="321.73361" y="301.31378" font-family="Sans" font-size="40" letter-spacing="0" word-spacing="0">
  <tspan x="321.73361" y="301.31378"/>
 </text>
</svg>
