<?xml version="1.0" encoding="UTF-8"?>
<svg width="187.09" height="231.38" enable-background="new 0 0 187.086 231.379" viewBox="0 0 187.086 231.379" xmlns="http://www.w3.org/2000/svg">
 <g stroke="#6a737b">
  <path d="m156.1 26.232c-4.277-6.068-8.332-12.092-17.762-16.425-11.322-5.206-26.955-8.424-44.22-8.424-19.224 0-36.416 3.993-47.897 10.272-6.341 3.468-9.491 7.852-13.157 12.213-19.403 21.542-31.684 53.245-31.684 88.622 0 64.898 41.262 117.51 92.162 117.51s92.161-52.607 92.161-117.51c0-34.099-11.4-64.792-29.6-86.258z" stroke-width="2.7648"/>
  <path d="m142.95 32.887a48.997 21.48 0 1 0 -97.994 0 48.997 21.48 0 1 0 97.994 0" fill="#a19789" stroke-width="2.8332"/>
 </g>
 <path d="m33.835,32.917c-15.813,20.279-25.57,47.995-25.57,78.573 0,62.16 40.241,112.55 89.883,112.55 3.908,0 7.748-.346 11.527-.955-48.796-1.215-88.064-51.09-88.064-112.49 0-25.699 6.889-49.374 18.473-68.313l-6.254-9.36z" fill="#949383"/>
</svg>
