<?xml version="1.0" encoding="UTF-8"?>
<svg viewBox="0 0 82.762871 157.95149" xmlns="http://www.w3.org/2000/svg">
 <defs>
  <linearGradient id="a" x1="592.05" x2="694.64" y1="566.04" y2="351.82" gradientUnits="userSpaceOnUse">
   <stop stop-color="#2fb022" offset="0"/>
   <stop stop-color="#2f7022" stop-opacity="0" offset="1"/>
  </linearGradient>
  <linearGradient id="b" x1="830.87" x2="634.28" y1="397.21" y2="512.27" gradientUnits="userSpaceOnUse">
   <stop stop-color="#2f7022" offset="0"/>
   <stop stop-color="#2f7022" stop-opacity="0" offset="1"/>
  </linearGradient>
 </defs>
 <g transform="matrix(-.45167 -.1745 -.1745 .45167 417.7 -30.608)">
  <g transform="translate(211.36 24.351)">
   <g transform="matrix(-.81058 .58563 -.58563 -.81058 1309.5 375.13)" fill-rule="evenodd">
    <path d="m891.22 346.99c-30.335-11.056-18.122 38.445-123.11 32.687-11.334-0.32919-13.002-1.3185-16.47 0s-1.7023 3.1277-6.1764 5.4901-16.775 3.0647-24.706 6.1764-18.952 12.243-27.451 15.098-19.438 1.2934-28.137 4.1176-22.675 12.757-28.823 15.098-7.3706-0.10371-10.98 2.7451-8.3393 12.494-8.9214 17.157 3.3208 5.6107 2.7451 11.667-11.627 15.386-11.667 26.078 10.892 31.65 17.157 39.117 11.356 8.5064 18.529 12.353 20.188 9.6469 29.509 12.353 23.681 4.6456 32.254 5.4901 24.706 0.68627 24.706 0.68627 28.187-7.4561 35-11.667 9.6809-8.4537 11.667-11.667 0.13302-6.4605 2.7451-8.2352 6.0299 3.2091 12.353 0.68627 15.945-16.403 22.647-24.019 16.75-20.038 21.96-26.764c19.007-17.817 21.1-42.578 23.901-57.517 2.7343-14.579 85.972-28.367 31.265-67.13z" fill="#1e3621"/>
    <path d="m841.43 387.24c1.3247-4.9384-8.8642 1.6721-19.891 1.8683s-43.188-2.8096-53.453-3.1077-11.776-1.1942-14.917 0-1.5418 2.8328-5.5939 4.9724-15.193 2.7757-22.376 5.5939-17.165 11.088-24.862 13.674-17.604 1.1714-25.483 3.7293-20.537 11.554-26.105 13.674-6.6755-0.09393-9.9447 2.4862-7.5529 11.316-8.0801 15.539 3.0076 5.0816 2.4862 10.566-10.531 13.935-10.566 23.619 9.8644 28.665 15.539 35.428 10.285 7.7042 16.782 11.188 18.284 8.7371 26.726 11.188 21.448 4.2075 29.213 4.9724 22.376 0.62155 22.376 0.62155 25.529-6.7529 31.699-10.566 8.7679-7.6564 10.566-10.566 0.12048-5.8512 2.4862-7.4585 5.4612 2.9065 11.188 0.62154 14.442-14.856 20.511-21.754 15.17-18.149 19.889-24.24 9.2193-12.95 11.809-16.16 2.3346 1.1884 4.9724-5.5939 11.006-34.387 0.62275-41.026-29.046 18.84-37.068 17.825-10.195 1.2297-9.773-8.2288 39.766-23.345 41.247-28.864z" fill="url(#b)"/>
   </g>
  </g>
  <path d="m613.58 575.61c1.8182 4.7787 6.2059-6.5465 15.029-13.163s36.653-23.015 45.148-28.784 10.245-5.9285 12.091-8.7358-0.40919-3.1991 1.6224-7.3064 10.69-11.147 14.861-17.638 7.42-19.04 12.145-25.644 13.584-11.259 18.472-17.947 9.8802-21.392 13.152-26.372 5.466-3.8332 6.605-7.8391-0.50479-13.596-2.5503-17.327-5.4138-2.3577-8.2031-7.1088 0.37551-17.462-5.2669-25.333-24.783-17.458-33.343-19.617-12.849-0.22148-20.155 0.75917-19.937 3.6254-28.216 6.5831-19.849 9.1498-26.591 13.077-18.501 12.6-18.501 12.6-16.738 20.424-19.507 27.128-2.6233 11.341-2.3769 14.753 3.329 4.8135 2.3526 7.5017-6.1289 0.8423-9.4326 6.048-3.0062 20.499-3.8861 29.645-1.6686 23.595-1.9263 31.296 0.11075 15.896-0.10863 20.015-2.5884 0.4039-0.75456 7.4463 11.216 34.319 23.521 33.619 12.511-32.281 19.608-36.157 7.544-6.9674 12.741 0.94679-18.562 42.211-16.53 47.552z" fill="url(#a)" fill-rule="evenodd"/>
  <path d="m624.57 550.52s32.6-15.932 31.485-18.552c-1.4575-3.4229-29.285 11.867-29.285 11.867l6.6459-8.464s24.107-14.074 32.742-20.263 27.096-18.123 24.933-20.558c-1.8242-2.0544-25.563 17.951-34.933 23.128s-26.348 12.703-26.348 12.703l9.4164-12.74s78.327-48.328 75.979-50.652c-3.2206-3.1869-77.682 45.946-77.682 45.946l7.3896-21.415 24.708-31.383s16.58 2.7613 26.492 0.32913 38.921-14.352 36.588-19.688c-0.62118-1.4212-28.82 14.404-38.447 15.941s-23.303-1.785-23.303-1.785l12.976-19.553s55.215-50.305 53.815-53.26c-1.6156-3.4107-55.809 48.311-54.87 49.781 0.05766 0.09016-2.2741-15.739-1.0368-23.987s11.355-28.54 11.355-28.54 16.001-23.063 14.952-24.136c-1.486-1.5202-14.143 13.779-19.329 22.446s-12.6 25.532-13.549 35.195 3.2182 16.045 2.6006 22.029-22.131 31.236-22.131 31.236l-5.3675-14.216c-2.2127-5.8603-2.4634 3.8156 1.2231 19.537l-19.779 31.214 15.782-58.692 2.8575-8.3088s-0.52513 2.0238 0.95011-1.539 3.3108-14.365 5.9111-23.558 11.429-35.755 11.429-35.755 13.473-20.267 11.86-20.661c-2.314-0.56608-12.114 15.341-12.114 15.341l-9.2522 27.002-9.6992-16.919s-0.9608-15.992-2.3795-15.936c-2.1322 0.08441 0.05049 22.076 0.05049 22.076l8.9326 14.712-4.3553 20.919-9.6739-3.9983s-5.3881-24.85-7.9433-23.908c-3.1642 1.1669 5.1569 25.921 5.1569 25.921l9.9219 5.5155s-8.8362 27.589-8.8749 27.577c-0.72833-0.22954-7.8803-16.189-11.351-25.648s-6.9339-37.094-9.4812-37.177c-2.1655-0.0709 2.7946 33.522 6.2014 43.749s13.303 21.724 13.325 24.26c0.00614 0.69488-5.1931 20.86-7.1306 21.228-2.6171 0.49673-7.1852-7.6642-9.6237-5.7309-3.7134 2.9441 8.6846 13.195 8.6846 13.195s-2.9879 14.753-3.582 16.12c-0.72175 1.6609-5.1122-8.925-7.6928-7.1259-2.9474 2.0547 4.5971 11.059 4.5971 11.059l-6.9257 18.536-0.92433-39.967s-0.14042-25.667-2.1616-32.287-4.5702-17.41-4.5702-17.41l-2.5774-20.605s-2.7793-6.8583-4.9861-5.7274 2.045 8.7004 2.045 8.7004 2.9119 21.475 0.04153 21.135c-2.4757-0.29335-9.0863-14.866-12.772-15.33s-4.6413-1.1573-1.9425 2.0346c3.0361 3.5908 14.096 17.135 14.096 17.135s5.1366 7.5968 7.5837 19.889 1.7894 62.242 1.7894 62.242l0.88024 3.5663-2.4559 4.7925s-6.7515-26.598-10.054-34.693-6.4912-19.553-10.481-19.53c-4.4159 0.02493 7.2927 21.178 9.3378 30.534s4.2515 31.632 4.2515 31.632l-31.673 68.523s-7.1729 22.34-0.82894 28.104 17.717 2.4036 23.849-3.7374 4.9858-18.227 8.9459-30.912 19.784-52.502 19.784-52.502z" fill="#fbeee6" fill-rule="evenodd"/>
 </g>
</svg>
